<?xml version="1.0" standalone="no"?><!DOCTYPE svg PUBLIC "-//W3C//DTD SVG 1.1//EN" "http://www.w3.org/Graphics/SVG/1.1/DTD/svg11.dtd">
<svg x="0.0000mm" y="0.0000mm" width="15.8750mm" height="15.8750mm" viewBox="0.0000 0.0000 15.8750 15.8750" version="1.1" xmlns="http://www.w3.org/2000/svg" shape-rendering="crispEdges">
<title>TBarCode - 11.12.1.16467</title>
<desc>BarCode licensed to MEM:TEC-IT Datenverarbeitung GmbH Internal License</desc>
<g fill="rgb(0%,0%,0%)">
</g>
<g fill="rgb(100%,100%,100%)">
<rect x="0.0000" y="0.0000" width="15.8750" height="15.8750" />
</g>
<g fill="rgb(0%,0%,0%)">
</g>
<g fill="rgb(0%,0%,0%)">
<rect x="2.1167" y="0.0000" width="1.0583" height="1.0583" />
<rect x="3.1750" y="0.0000" width="1.0583" height="1.0583" />
<rect x="4.2333" y="0.0000" width="1.0583" height="1.0583" />
<rect x="9.5250" y="0.0000" width="1.0583" height="1.0583" />
<rect x="10.5833" y="0.0000" width="1.0583" height="1.0583" />
<rect x="11.6417" y="0.0000" width="1.0583" height="1.0583" />
<rect x="12.7000" y="0.0000" width="1.0583" height="1.0583" />
<rect x="13.7583" y="0.0000" width="1.0583" height="1.0583" />
<rect x="14.8167" y="0.0000" width="1.0583" height="1.0583" />
</g>
<g fill="rgb(0%,0%,0%)">
<rect x="0.0000" y="1.0583" width="1.0583" height="1.0583" />
<rect x="1.0583" y="1.0583" width="1.0583" height="1.0583" />
<rect x="2.1167" y="1.0583" width="1.0583" height="1.0583" />
<rect x="3.1750" y="1.0583" width="1.0583" height="1.0583" />
<rect x="5.2917" y="1.0583" width="1.0583" height="1.0583" />
<rect x="6.3500" y="1.0583" width="1.0583" height="1.0583" />
<rect x="9.5250" y="1.0583" width="1.0583" height="1.0583" />
<rect x="11.6417" y="1.0583" width="1.0583" height="1.0583" />
<rect x="12.7000" y="1.0583" width="1.0583" height="1.0583" />
</g>
<g fill="rgb(0%,0%,0%)">
<rect x="0.0000" y="2.1167" width="1.0583" height="1.0583" />
<rect x="2.1167" y="2.1167" width="1.0583" height="1.0583" />
<rect x="3.1750" y="2.1167" width="1.0583" height="1.0583" />
<rect x="9.5250" y="2.1167" width="1.0583" height="1.0583" />
<rect x="12.7000" y="2.1167" width="1.0583" height="1.0583" />
<rect x="13.7583" y="2.1167" width="1.0583" height="1.0583" />
<rect x="14.8167" y="2.1167" width="1.0583" height="1.0583" />
</g>
<g fill="rgb(0%,0%,0%)">
<rect x="2.1167" y="3.1750" width="1.0583" height="1.0583" />
<rect x="3.1750" y="3.1750" width="1.0583" height="1.0583" />
<rect x="4.2333" y="3.1750" width="1.0583" height="1.0583" />
<rect x="5.2917" y="3.1750" width="1.0583" height="1.0583" />
<rect x="6.3500" y="3.1750" width="1.0583" height="1.0583" />
<rect x="7.4083" y="3.1750" width="1.0583" height="1.0583" />
<rect x="8.4667" y="3.1750" width="1.0583" height="1.0583" />
<rect x="9.5250" y="3.1750" width="1.0583" height="1.0583" />
<rect x="10.5833" y="3.1750" width="1.0583" height="1.0583" />
<rect x="11.6417" y="3.1750" width="1.0583" height="1.0583" />
<rect x="12.7000" y="3.1750" width="1.0583" height="1.0583" />
<rect x="14.8167" y="3.1750" width="1.0583" height="1.0583" />
</g>
<g fill="rgb(0%,0%,0%)">
<rect x="1.0583" y="4.2333" width="1.0583" height="1.0583" />
<rect x="3.1750" y="4.2333" width="1.0583" height="1.0583" />
<rect x="11.6417" y="4.2333" width="1.0583" height="1.0583" />
<rect x="13.7583" y="4.2333" width="1.0583" height="1.0583" />
<rect x="14.8167" y="4.2333" width="1.0583" height="1.0583" />
</g>
<g fill="rgb(0%,0%,0%)">
<rect x="1.0583" y="5.2917" width="1.0583" height="1.0583" />
<rect x="3.1750" y="5.2917" width="1.0583" height="1.0583" />
<rect x="5.2917" y="5.2917" width="1.0583" height="1.0583" />
<rect x="6.3500" y="5.2917" width="1.0583" height="1.0583" />
<rect x="7.4083" y="5.2917" width="1.0583" height="1.0583" />
<rect x="8.4667" y="5.2917" width="1.0583" height="1.0583" />
<rect x="9.5250" y="5.2917" width="1.0583" height="1.0583" />
<rect x="11.6417" y="5.2917" width="1.0583" height="1.0583" />
<rect x="12.7000" y="5.2917" width="1.0583" height="1.0583" />
</g>
<g fill="rgb(0%,0%,0%)">
<rect x="2.1167" y="6.3500" width="1.0583" height="1.0583" />
<rect x="3.1750" y="6.3500" width="1.0583" height="1.0583" />
<rect x="5.2917" y="6.3500" width="1.0583" height="1.0583" />
<rect x="9.5250" y="6.3500" width="1.0583" height="1.0583" />
<rect x="11.6417" y="6.3500" width="1.0583" height="1.0583" />
</g>
<g fill="rgb(0%,0%,0%)">
<rect x="0.0000" y="7.4083" width="1.0583" height="1.0583" />
<rect x="1.0583" y="7.4083" width="1.0583" height="1.0583" />
<rect x="3.1750" y="7.4083" width="1.0583" height="1.0583" />
<rect x="5.2917" y="7.4083" width="1.0583" height="1.0583" />
<rect x="7.4083" y="7.4083" width="1.0583" height="1.0583" />
<rect x="9.5250" y="7.4083" width="1.0583" height="1.0583" />
<rect x="11.6417" y="7.4083" width="1.0583" height="1.0583" />
<rect x="12.7000" y="7.4083" width="1.0583" height="1.0583" />
<rect x="13.7583" y="7.4083" width="1.0583" height="1.0583" />
<rect x="14.8167" y="7.4083" width="1.0583" height="1.0583" />
</g>
<g fill="rgb(0%,0%,0%)">
<rect x="3.1750" y="8.4667" width="1.0583" height="1.0583" />
<rect x="5.2917" y="8.4667" width="1.0583" height="1.0583" />
<rect x="9.5250" y="8.4667" width="1.0583" height="1.0583" />
<rect x="11.6417" y="8.4667" width="1.0583" height="1.0583" />
<rect x="13.7583" y="8.4667" width="1.0583" height="1.0583" />
<rect x="14.8167" y="8.4667" width="1.0583" height="1.0583" />
</g>
<g fill="rgb(0%,0%,0%)">
<rect x="0.0000" y="9.5250" width="1.0583" height="1.0583" />
<rect x="1.0583" y="9.5250" width="1.0583" height="1.0583" />
<rect x="3.1750" y="9.5250" width="1.0583" height="1.0583" />
<rect x="5.2917" y="9.5250" width="1.0583" height="1.0583" />
<rect x="6.3500" y="9.5250" width="1.0583" height="1.0583" />
<rect x="7.4083" y="9.5250" width="1.0583" height="1.0583" />
<rect x="8.4667" y="9.5250" width="1.0583" height="1.0583" />
<rect x="9.5250" y="9.5250" width="1.0583" height="1.0583" />
<rect x="11.6417" y="9.5250" width="1.0583" height="1.0583" />
<rect x="13.7583" y="9.5250" width="1.0583" height="1.0583" />
</g>
<g fill="rgb(0%,0%,0%)">
<rect x="0.0000" y="10.5833" width="1.0583" height="1.0583" />
<rect x="3.1750" y="10.5833" width="1.0583" height="1.0583" />
<rect x="11.6417" y="10.5833" width="1.0583" height="1.0583" />
<rect x="13.7583" y="10.5833" width="1.0583" height="1.0583" />
</g>
<g fill="rgb(0%,0%,0%)">
<rect x="0.0000" y="11.6417" width="1.0583" height="1.0583" />
<rect x="3.1750" y="11.6417" width="1.0583" height="1.0583" />
<rect x="4.2333" y="11.6417" width="1.0583" height="1.0583" />
<rect x="5.2917" y="11.6417" width="1.0583" height="1.0583" />
<rect x="6.3500" y="11.6417" width="1.0583" height="1.0583" />
<rect x="7.4083" y="11.6417" width="1.0583" height="1.0583" />
<rect x="8.4667" y="11.6417" width="1.0583" height="1.0583" />
<rect x="9.5250" y="11.6417" width="1.0583" height="1.0583" />
<rect x="10.5833" y="11.6417" width="1.0583" height="1.0583" />
<rect x="11.6417" y="11.6417" width="1.0583" height="1.0583" />
<rect x="12.7000" y="11.6417" width="1.0583" height="1.0583" />
</g>
<g fill="rgb(0%,0%,0%)">
<rect x="4.2333" y="12.7000" width="1.0583" height="1.0583" />
<rect x="5.2917" y="12.7000" width="1.0583" height="1.0583" />
<rect x="6.3500" y="12.7000" width="1.0583" height="1.0583" />
<rect x="8.4667" y="12.7000" width="1.0583" height="1.0583" />
<rect x="9.5250" y="12.7000" width="1.0583" height="1.0583" />
<rect x="10.5833" y="12.7000" width="1.0583" height="1.0583" />
</g>
<g fill="rgb(0%,0%,0%)">
<rect x="0.0000" y="13.7583" width="1.0583" height="1.0583" />
<rect x="1.0583" y="13.7583" width="1.0583" height="1.0583" />
<rect x="2.1167" y="13.7583" width="1.0583" height="1.0583" />
<rect x="4.2333" y="13.7583" width="1.0583" height="1.0583" />
<rect x="9.5250" y="13.7583" width="1.0583" height="1.0583" />
<rect x="10.5833" y="13.7583" width="1.0583" height="1.0583" />
<rect x="11.6417" y="13.7583" width="1.0583" height="1.0583" />
<rect x="13.7583" y="13.7583" width="1.0583" height="1.0583" />
<rect x="14.8167" y="13.7583" width="1.0583" height="1.0583" />
</g>
<g fill="rgb(0%,0%,0%)">
<rect x="1.0583" y="14.8167" width="1.0583" height="1.0583" />
<rect x="2.1167" y="14.8167" width="1.0583" height="1.0583" />
<rect x="4.2333" y="14.8167" width="1.0583" height="1.0583" />
<rect x="10.5833" y="14.8167" width="1.0583" height="1.0583" />
<rect x="13.7583" y="14.8167" width="1.0583" height="1.0583" />
<rect x="14.8167" y="14.8167" width="1.0583" height="1.0583" />
</g>
</svg>
